<svg xmlns="http://www.w3.org/2000/svg" viewBox="0 0 68.81 68.81"><title>Asset 8</title><path d="M47,68.81C45,68,40.84,67,37.41,64.91A101.12,101.12,0,0,1,3.9,31.33c-4-6.49-6-13.48-.68-20.45,5.19-6.8,9.1-6.6,13.33.59a50.83,50.83,0,0,0,3.06,5.14c3.24,4.26,4.12,8.25.52,13-1,1.33-.56,5,.62,6.48,3.42,4.24,7.58,7.88,11.4,11.8,2.69,2.76,5.59,2.83,8.42.49,3.54-2.94,6.73-2.49,10.3,0,3.1,2.21,6.55,3.92,9.85,5.85,2.68,1.57,3.1,3.77,1.65,6.35C59.46,65.8,55.18,68.79,47,68.81Z"/><rect x="39.36" y="11.82" width="29.45" height="5.81" rx="2.14"/><rect x="39.36" y="11.82" width="29.45" height="5.81" rx="2.14" transform="translate(68.81 -39.36) rotate(90)"/></svg>