<?xml version="1.0" encoding="utf-8"?>
<!-- Generator: Adobe Illustrator 24.0.3, SVG Export Plug-In . SVG Version: 6.00 Build 0)  -->
<svg version="1.1" id="Layer_1" xmlns="http://www.w3.org/2000/svg" xmlns:xlink="http://www.w3.org/1999/xlink" x="0px" y="0px"
	 viewBox="0 0 150.7 40" style="enable-background:new 0 0 150.7 40;" xml:space="preserve">
<g>
	<g>
		<g>
			<path d="M19,7.5h5.9c2,0,3.5,0.5,4.4,1.4c0.9,0.9,1.4,2.4,1.4,4.3v1c0,1.3-0.2,2.3-0.6,3.1c-0.4,0.8-1.1,1.4-1.9,1.8v0.1
				c2,0.7,2.9,2.4,2.9,5.2v2.1c0,1.9-0.5,3.4-1.5,4.4c-1,1-2.5,1.5-4.5,1.5H19V7.5z M24.4,17.7c0.8,0,1.4-0.2,1.8-0.6
				c0.4-0.4,0.6-1.1,0.6-2v-1.4c0-0.9-0.2-1.6-0.5-2c-0.3-0.4-0.8-0.6-1.5-0.6h-1.9v6.6H24.4z M25.2,29c0.7,0,1.2-0.2,1.5-0.6
				c0.3-0.4,0.5-1,0.5-1.9v-2.2c0-1.1-0.2-1.9-0.6-2.4c-0.4-0.4-1-0.7-2-0.7h-1.8V29H25.2z"/>
		</g>
		<g>
			<path d="M33.4,7.5h5.8c2,0,3.5,0.5,4.4,1.4c0.9,0.9,1.4,2.4,1.4,4.3v1.5c0,2.6-0.9,4.2-2.6,4.9v0.1c1,0.3,1.6,0.9,2,1.8
				c0.4,0.9,0.6,2.1,0.6,3.5v4.4c0,0.7,0,1.3,0.1,1.7c0,0.4,0.2,0.9,0.4,1.3h-4c-0.1-0.4-0.2-0.8-0.3-1.1c0-0.4-0.1-1-0.1-1.9v-4.6
				c0-1.1-0.2-1.9-0.6-2.4c-0.4-0.5-1-0.7-1.9-0.7h-1.4v10.7h-3.9V7.5z M38.8,18.3c0.8,0,1.4-0.2,1.8-0.6c0.4-0.4,0.6-1.1,0.6-2
				v-1.9c0-0.9-0.2-1.6-0.5-2c-0.3-0.4-0.8-0.6-1.5-0.6h-1.8v7.2H38.8z"/>
		</g>
		<g>
			<path d="M50.9,7.5h5.3l4.1,25h-3.9l-0.7-5v0.1h-4.5l-0.7,4.9h-3.6L50.9,7.5z M55.2,24.3l-1.8-12.4h-0.1l-1.7,12.4H55.2z"/>
		</g>
		<g>
			<path d="M62.2,7.5h4.9l3.8,15H71v-15h3.5v25h-4l-4.7-18.3h-0.1v18.3h-3.5V7.5z"/>
		</g>
		<g>
			<path d="M77.5,7.5h6c2,0,3.4,0.5,4.4,1.6c1,1,1.5,2.6,1.5,4.6v12.7c0,2-0.5,3.6-1.5,4.6c-1,1-2.4,1.6-4.4,1.6h-6V7.5z M83.4,29
				c0.6,0,1.1-0.2,1.5-0.6c0.3-0.4,0.5-1,0.5-1.9v-13c0-0.9-0.2-1.5-0.5-1.9c-0.3-0.4-0.8-0.6-1.5-0.6h-2V29H83.4z"/>
		</g>
		<g>
			<path d="M92,7.5h3.9v25H92V7.5z"/>
		</g>
		<g>
			<path d="M99.6,31.3c-1-1.1-1.5-2.6-1.5-4.7v-1.4h3.7v1.7c0,1.6,0.7,2.4,2,2.4c0.7,0,1.2-0.2,1.5-0.6s0.5-1,0.5-1.9
				c0-1-0.2-2-0.7-2.8c-0.5-0.8-1.4-1.8-2.6-2.9c-1.6-1.4-2.8-2.7-3.4-3.9c-0.6-1.2-1-2.5-1-3.9c0-2,0.5-3.5,1.5-4.6
				c1-1.1,2.5-1.6,4.4-1.6c1.9,0,3.3,0.5,4.3,1.6c1,1.1,1.4,2.6,1.4,4.7v1h-3.7v-1.3c0-0.9-0.2-1.5-0.5-1.9
				c-0.3-0.4-0.8-0.6-1.5-0.6c-1.3,0-2,0.8-2,2.4c0,0.9,0.2,1.8,0.7,2.5c0.5,0.8,1.4,1.7,2.7,2.9c1.6,1.4,2.8,2.7,3.4,3.9
				c0.6,1.2,0.9,2.5,0.9,4.1c0,2.1-0.5,3.6-1.5,4.7c-1,1.1-2.5,1.6-4.4,1.6C102.1,32.9,100.6,32.4,99.6,31.3z"/>
		</g>
		<g>
			<path d="M112.2,7.5h3.9v25h-3.9V7.5z"/>
		</g>
		<g>
			<path d="M119,7.5h5.6l2.5,17.9h0.1l2.5-17.9h5.6v25h-3.7v-19h-0.1l-2.9,19h-3.3l-2.9-19h-0.1v19H119V7.5z"/>
		</g>
		<g>
			<path d="M141.3,7.5h5.3l4.1,25h-3.9l-0.7-5v0.1h-4.5l-0.7,4.9h-3.6L141.3,7.5z M145.6,24.3l-1.8-12.4h-0.1l-1.7,12.4H145.6z"/>
		</g>
	</g>
	<g>
		<path d="M37,40H0V0h37V40z M4,36h29V4H4V36z"/>
	</g>
</g>
</svg>
