<?xml version="1.0" encoding="utf-8"?>
<!-- Generator: Adobe Illustrator 24.0.3, SVG Export Plug-In . SVG Version: 6.00 Build 0)  -->
<svg version="1.1" id="Layer_1" xmlns="http://www.w3.org/2000/svg" xmlns:xlink="http://www.w3.org/1999/xlink" x="0px" y="0px"
	 viewBox="0 0 153 35.1" style="enable-background:new 0 0 153 35.1;" xml:space="preserve">
<g>
	<g>
		<g>
			<path d="M12.1,2.5c5,0,8.2,1,10.4,3.1c1.8,1.7,3,4.2,3,7.7c0,4.2-1.7,7.6-4.5,9.7c-2.7,2-6.2,2.8-10.6,2.8H2.1v-1
				c3.1-0.3,3.2-0.5,3.2-3.5V7c0-3.1-0.4-3.2-3.2-3.5v-1H12.1z M8.4,21c0,2.7,1.1,3.4,3.8,3.4c6.4,0,9.7-4.4,9.7-10.7
				c0-3.9-1.3-6.9-4.2-8.6c-1.6-1-3.7-1.4-6.1-1.4c-1.6,0-2.5,0.2-2.8,0.5c-0.3,0.2-0.5,0.6-0.5,2V21z"/>
		</g>
		<g>
			<path d="M41.7,22.7c-2.3,2.9-4.8,3.5-5.9,3.5c-4.4,0-7-3.6-7-7.7c0-2.4,0.9-4.7,2.3-6.3c1.5-1.7,3.5-2.6,5.3-2.6
				c3.1,0,5.5,2.7,5.5,5.5c0,0.7-0.1,1-0.7,1.2c-0.7,0.1-5.3,0.5-9.6,0.6c-0.1,4.8,2.8,6.8,5.4,6.8c1.5,0,2.8-0.6,4.2-1.8L41.7,22.7
				z M35.6,10.9c-1.6,0-3.3,1.5-3.8,4.4c2,0,4,0,6.1-0.1c0.6,0,0.9-0.2,0.9-0.7C38.8,12.7,37.6,10.9,35.6,10.9z"/>
		</g>
		<g>
			<path d="M53.4,14.3c-0.6-2.1-1.6-3.5-3.8-3.5c-1.3,0-2.2,0.9-2.2,2.3c0,1.5,1,2.3,3,3.2c3.1,1.5,4.6,2.5,4.6,4.9c0,3.3-3,5-5.8,5
				c-1.9,0-3.5-0.6-4.3-1c-0.2-1-0.5-3-0.6-4.2l1-0.2c0.6,2.3,1.9,4.2,4.4,4.2c1.4,0,2.5-0.9,2.5-2.4c0-1.6-1-2.4-2.9-3.4
				c-2.5-1.2-4.5-2.4-4.5-4.9c0-2.6,2.2-4.6,5.6-4.6c1.5,0,2.7,0.4,3.4,0.5c0.1,0.9,0.4,3.1,0.5,4L53.4,14.3z"/>
		</g>
		<g>
			<path d="M57.4,25.7v-1c2.3-0.2,2.5-0.4,2.5-2.8v-7.4c0-2.2-0.1-2.4-2.3-2.7v-0.9c1.9-0.3,3.5-0.8,5.1-1.4c0,1.5,0,3,0,4.5v7.9
				c0,2.4,0.3,2.6,2.6,2.8v1H57.4z M61.1,6c-1,0-1.9-0.9-1.9-1.9c0-1.1,0.9-2,1.9-2c1,0,1.8,0.8,1.8,2C62.9,5.1,62.1,6,61.1,6z"/>
		</g>
		<g>
			<path d="M71.7,20.5c-0.9,0.7-1.2,1.4-1.2,1.8c0,0.6,0.6,1.4,2.2,1.4c1.3,0,2.8,0,4,0c2.3,0,5.2,0.8,5.2,4.3
				c0,3.7-4.4,7.2-9.2,7.2c-4,0-6.2-2.4-6.3-4.5c0-0.8,0.3-1.5,0.9-2c0.7-0.8,2.1-1.9,2.9-2.6c-1.3-0.4-2.2-1.2-2.7-1.9
				c-0.3-0.5-0.4-1.2-0.4-1.5c1.4-0.5,2.6-1.5,3.3-2.5L71.7,20.5z M73.5,20.9c-3.3,0-6.1-2-6.1-5.4c0-4.1,3.6-6,6.4-6
				c1.2,0,2.4,0.3,3.4,0.9c1.6,0,3.8-0.3,4.8-0.5l0.2,0.3c-0.2,0.6-0.8,1.6-1.3,1.9c-0.5,0-1.7-0.1-2.2-0.2c0.6,0.8,1,2,1,3.3
				C79.8,19,76.5,20.9,73.5,20.9z M74.3,26.2c-1.8,0-2.5,0.2-3.2,0.8c-1,0.8-1.7,1.9-1.7,2.9c0,2,2,3.4,4.8,3.4c3.4,0,5.3-1.8,5.3-4
				c0-1.2-0.6-2.2-1.6-2.6C77,26.2,75.8,26.2,74.3,26.2z M73.5,10.6c-1.6,0-3,1.5-3,4.3s1.4,4.8,3.4,4.8c1.6-0.1,3-1.4,3-4.3
				C76.8,12.6,75.5,10.6,73.5,10.6z"/>
		</g>
		<g>
			<path d="M93.7,25.7v-1c2.1-0.2,2.3-0.5,2.3-2.9v-5.9c0-2.5-0.9-4.2-3.3-4.2c-1.5,0-2.9,0.9-4,1.9V22c0,2.5,0.2,2.5,2.3,2.8v1
				h-7.7v-1c2.4-0.3,2.6-0.4,2.6-2.8v-7.4c0-2.3-0.3-2.4-2.2-2.8v-0.9c1.8-0.3,3.5-0.8,5-1.4c0,0.8,0,2,0,2.8c0.7-0.5,1.5-1,2.4-1.6
				c1-0.6,1.9-1.1,3-1.1c2.9,0,4.7,2.1,4.7,5.6V22c0,2.4,0.2,2.5,2.3,2.8v1H93.7z"/>
		</g>
		<g>
			<path d="M102.7,25.7v-1c2.3-0.2,2.6-0.4,2.6-2.8V4.8c0-2.2-0.2-2.4-2.5-2.7V1.2c1.9-0.2,4.2-0.8,5.3-1.2c0,1.7,0,3.4,0,5.1V22
				c0,2.4,0.2,2.5,2.5,2.8v1H102.7z"/>
		</g>
		<g>
			<path d="M125.5,22.7c-2.3,2.9-4.8,3.5-5.9,3.5c-4.4,0-7-3.6-7-7.7c0-2.4,0.9-4.7,2.3-6.3c1.5-1.7,3.5-2.6,5.3-2.6
				c3.1,0,5.5,2.7,5.5,5.5c0,0.7-0.1,1-0.7,1.2c-0.7,0.1-5.3,0.5-9.6,0.6c-0.1,4.8,2.8,6.8,5.4,6.8c1.5,0,2.8-0.6,4.2-1.8
				L125.5,22.7z M119.4,10.9c-1.6,0-3.3,1.5-3.8,4.4c2,0,4,0,6.1-0.1c0.6,0,0.9-0.2,0.9-0.7C122.7,12.7,121.4,10.9,119.4,10.9z"/>
		</g>
		<g>
			<path d="M137.2,14.3c-0.6-2.1-1.6-3.5-3.8-3.5c-1.3,0-2.2,0.9-2.2,2.3c0,1.5,1,2.3,3,3.2c3.1,1.5,4.6,2.5,4.6,4.9
				c0,3.3-3,5-5.8,5c-1.9,0-3.5-0.6-4.3-1c-0.2-1-0.5-3-0.6-4.2l1-0.2c0.6,2.3,1.9,4.2,4.4,4.2c1.4,0,2.5-0.9,2.5-2.4
				c0-1.6-1-2.4-2.9-3.4c-2.5-1.2-4.5-2.4-4.5-4.9c0-2.6,2.2-4.6,5.6-4.6c1.5,0,2.7,0.4,3.4,0.5c0.1,0.9,0.4,3.1,0.5,4L137.2,14.3z"
				/>
		</g>
		<g>
			<path d="M150.6,14.3c-0.6-2.1-1.6-3.5-3.8-3.5c-1.3,0-2.2,0.9-2.2,2.3c0,1.5,1,2.3,3,3.2c3.1,1.5,4.6,2.5,4.6,4.9
				c0,3.3-3,5-5.8,5c-1.9,0-3.5-0.6-4.3-1c-0.2-1-0.5-3-0.6-4.2l1-0.2c0.6,2.3,1.9,4.2,4.4,4.2c1.4,0,2.5-0.9,2.5-2.4
				c0-1.6-1-2.4-2.9-3.4c-2.5-1.2-4.5-2.4-4.5-4.9c0-2.6,2.2-4.6,5.6-4.6c1.5,0,2.7,0.4,3.4,0.5c0.1,0.9,0.4,3.1,0.5,4L150.6,14.3z"
				/>
		</g>
	</g>
	<g>
		<rect y="30.1" width="64" height="2"/>
	</g>
	<g>
		<rect x="84" y="30.1" width="69" height="2"/>
	</g>
</g>
</svg>
