<?xml version="1.0" encoding="utf-8"?>
<!-- Generator: Adobe Illustrator 24.0.3, SVG Export Plug-In . SVG Version: 6.00 Build 0)  -->
<svg version="1.1" id="Layer_1" xmlns="http://www.w3.org/2000/svg" xmlns:xlink="http://www.w3.org/1999/xlink" x="0px" y="0px"
	 viewBox="0 0 203.2 32.2" style="enable-background:new 0 0 203.2 32.2;" xml:space="preserve">
<g>
	<g>
		<g>
			<path d="M59.3,24.9c0,0.2-0.1,0.3-0.3,0.3h-0.8c-1,0-1.6,0.1-1.7,0.5c-0.1,0.3-0.1,1.2-0.1,2.9v1.1c-1.1,1-2.2,1.6-3.3,2
				c-1,0.4-2.3,0.6-3.7,0.6c-3.5,0-6.2-1-8.3-3.1c-2-2.1-3.1-4.9-3.1-8.5c0-3.6,1-6.5,3-8.7c2-2.2,4.6-3.3,7.9-3.3
				c1.4,0,3,0.4,4.7,1.2c0.5,0.2,0.9,0.4,1.3,0.4c0.4,0,0.7-0.3,0.8-0.8C55.9,9,56,8.8,56.2,8.8c0.2,0,0.3,0.1,0.3,0.3
				c0,0.1,0,0.3-0.1,0.7c-0.1,1.3-0.2,2.2-0.2,2.7v2.1c0,0.8,0,1.1,0,1c0,0.5-0.2,0.8-0.4,0.8c-0.2,0-0.3-0.2-0.3-0.5
				c-0.1-2.1-0.7-3.8-1.8-5.1c-1.1-1.2-2.6-1.8-4.4-1.8c-2.3,0-4.1,1-5.4,3.1c-1.3,2.1-2,4.8-2,8.4c0,3.4,0.7,6.1,2,8.1
				c1.4,2,3.2,3,5.5,3c1.8,0,3-0.5,3.6-1.5c0.3-0.5,0.5-1.4,0.5-2.7c0-1.1-0.1-1.7-0.3-1.9c-0.2-0.2-0.9-0.3-2.2-0.3
				c-0.3,0-0.5,0-0.6,0c-0.1,0-0.1-0.1-0.1-0.2c0-0.2,0.2-0.4,0.7-0.4h0.6c0.3,0,1.5,0,3.5,0h2.8c0.2,0,0.3,0,0.5,0s0.3,0,0.4,0
				C59.1,24.6,59.3,24.7,59.3,24.9z"/>
		</g>
		<g>
			<path d="M69.7,19.3c0,0.5-0.2,0.9-0.5,1.3c-0.3,0.3-0.7,0.5-1.2,0.5c-0.4,0-0.7-0.1-1-0.3c-0.3-0.2-0.4-0.5-0.4-0.9
				c0-0.3,0.1-0.6,0.3-0.8c0.2-0.2,0.3-0.4,0.3-0.5c0-0.3-0.2-0.5-0.7-0.5c-0.6,0-1.1,0.4-1.6,1.1c-0.5,0.9-0.8,2.6-0.8,5v6.5
				c0,0.3,0.1,0.4,0.3,0.5s0.8,0.1,1.7,0.1c0.2,0,0.4,0.1,0.4,0.3c0,0.2-0.1,0.2-0.4,0.2c-0.5,0-1,0-1.4,0c-0.4,0-1.3,0-2.5,0
				c-0.6,0-1.1,0-1.4,0c-0.3,0-0.6,0-1.1,0c-0.4,0-0.5-0.1-0.5-0.2c0-0.1,0.1-0.2,0.4-0.2h0.5c0.7,0,1.2-0.1,1.3-0.3
				c0-0.1,0.1-0.5,0.1-1.2v-9.1c0-1.2-0.2-1.9-0.5-2.1s-0.9-0.3-1.7-0.3c-0.3,0-0.4-0.1-0.4-0.2c0-0.2,0.1-0.2,0.3-0.2h0.2
				c0.3,0,0.7,0,1,0c0.3,0,0.5,0,0.4,0c0.8,0,1.7-0.2,2.7-0.7l0.4-0.2l0.3-0.1c0.1,0.5,0.1,1.1,0.1,1.6v0.7c0.7-1.5,1.7-2.2,3-2.2
				c0.7,0,1.3,0.2,1.8,0.6C69.5,18.2,69.7,18.7,69.7,19.3z"/>
		</g>
		<g>
			<path d="M83.1,28.2c0,0.2-0.2,0.6-0.5,1.2c-0.3,0.6-0.7,1-1,1.4c-0.9,1-2.2,1.5-3.8,1.5c-2,0-3.6-0.7-5-2.1c-1.3-1.4-2-3.2-2-5.3
				c0-2.2,0.6-4,1.9-5.5c1.3-1.5,2.8-2.2,4.7-2.2c1.6,0,2.9,0.5,3.9,1.4c1.1,0.9,1.6,2.1,1.7,3.5c-0.7,0.1-1.6,0.2-2.8,0.1h-2.3
				c-0.2,0-1.5,0-4,0.1c-0.1,0.7-0.2,1.4-0.2,2.1c0,2.2,0.4,3.9,1.3,5.1c0.8,1.2,2,1.8,3.6,1.8c0.9,0,1.6-0.2,2.1-0.6
				c0.5-0.4,1.1-1.2,1.7-2.3c0.1-0.2,0.2-0.3,0.4-0.3C83,28,83.1,28.1,83.1,28.2z M80.2,21.5c-0.1-2.6-1-4-2.8-4
				c-1.8,0-2.9,1.3-3.3,4H80.2z"/>
		</g>
		<g>
			<path d="M97.3,28.2c0,0.2-0.2,0.6-0.5,1.2c-0.3,0.6-0.7,1-1,1.4c-0.9,1-2.2,1.5-3.8,1.5c-2,0-3.6-0.7-5-2.1c-1.3-1.4-2-3.2-2-5.3
				c0-2.2,0.6-4,1.9-5.5c1.3-1.5,2.8-2.2,4.7-2.2c1.6,0,2.9,0.5,3.9,1.4c1.1,0.9,1.6,2.1,1.7,3.5c-0.7,0.1-1.6,0.2-2.8,0.1h-2.3
				c-0.2,0-1.5,0-4,0.1C88,22.9,88,23.6,88,24.2c0,2.2,0.4,3.9,1.3,5.1c0.8,1.2,2,1.8,3.6,1.8c0.9,0,1.6-0.2,2.1-0.6
				c0.5-0.4,1.1-1.2,1.7-2.3c0.1-0.2,0.2-0.3,0.4-0.3C97.2,28,97.3,28.1,97.3,28.2z M94.4,21.5c-0.1-2.6-1-4-2.8-4
				c-1.8,0-2.9,1.3-3.3,4H94.4z"/>
		</g>
		<g>
			<path d="M114.2,31.6c0,0.2-0.2,0.2-0.5,0.2h-0.4c-0.4,0-0.9,0-1.6,0c-2.2,0-3.4,0-3.8,0h-0.2c-0.3,0-0.4-0.1-0.4-0.2
				c0-0.1,0.1-0.2,0.2-0.2c0.1,0,0.5,0,1.3-0.1c0.4,0,0.7-0.1,0.7-0.2c0.1-0.1,0.1-0.5,0.1-1.1v-6.3c0-2.4-0.1-3.8-0.3-4.3
				c-0.4-1-1.1-1.5-2.2-1.5c-1.1,0-2,0.5-2.8,1.4c-0.2,0.3-0.3,0.7-0.3,1.2V31c0,0.3,0.2,0.4,0.7,0.4l1,0c0.2,0,0.3,0.1,0.3,0.2
				s-0.1,0.2-0.4,0.2H105c-0.5,0-1.3,0-2.3,0c-0.2,0-0.8,0-1.6,0c-0.8,0-1.3,0-1.4,0h-0.2c-0.3,0-0.5-0.1-0.5-0.2
				c0-0.1,0.2-0.2,0.6-0.3c0.3,0,0.6,0,0.8,0c0.3,0,0.5-0.1,0.6-0.2l0.1-0.5v-7.2c0-2.5,0-3.9-0.1-4.1c0-0.3-0.3-0.4-0.8-0.4
				c-0.2,0-0.4,0-0.8,0h-0.2c-0.4,0-0.7-0.1-0.7-0.2c0-0.2,0.2-0.3,0.7-0.3c0.7,0,1.4-0.1,2.1-0.4c0.8-0.2,1.3-0.5,1.6-0.8
				c0.2-0.2,0.4-0.3,0.5-0.3c0.2,0,0.2,0.2,0.2,0.6v1.6c1.1-1.5,2.6-2.2,4.4-2.2c1.6,0,2.7,0.6,3.4,1.8c0.4,0.7,0.6,1.9,0.6,3.8v7.5
				c0,0.7,0,1.1,0.1,1.2c0.1,0.1,0.5,0.2,1,0.2c0.1,0,0.2,0,0.4,0h0.2C114.1,31.4,114.2,31.5,114.2,31.6z"/>
		</g>
		<g>
			<path d="M139,31.6c0,0.2-0.2,0.3-0.7,0.3h-0.4c-0.3,0-0.9,0-1.7,0s-1.4,0-1.9,0c-0.7,0-1.4,0-2.3,0c-0.9,0-1.5,0-1.8,0H130
				c-0.5,0-0.7-0.1-0.7-0.3c0-0.2,0.3-0.3,1-0.3c1.1,0,1.8-0.1,2-0.4c0.1-0.1,0.2-0.8,0.2-2.2V11.6c0,0-0.1,0.4-0.4,1.2
				c-0.9,2.7-2.2,6.7-3.8,12l-1.5,5.3c-0.3,1-0.5,1.6-0.7,1.6c-0.2,0-0.3-0.3-0.5-0.8c-0.6-2-2.4-7-5.4-15l-1.3-3.5c0,0.4,0,1,0,1.7
				v10.7c0,4,0,6.1,0.1,6.1c0.2,0.3,0.7,0.4,1.6,0.4c0.7,0,1.1,0.1,1.1,0.3c0,0.2-0.2,0.4-0.7,0.4c-0.3,0-0.6,0-0.8-0.1
				c-0.3,0-0.6-0.1-0.8-0.1l-3.8,0.1c-0.4,0-0.6-0.1-0.6-0.3c0-0.2,0.6-0.3,1.9-0.4c0.5,0,0.8-0.1,0.9-0.3c0.1-0.2,0.1-0.7,0.1-1.7
				V13.4c0-1.8,0-2.8-0.1-3c-0.1-0.3-0.3-0.5-0.6-0.6c-0.3-0.1-0.9-0.2-1.8-0.3c-0.4,0-0.5-0.1-0.5-0.3c0-0.2,0.3-0.4,1-0.4
				c0.1,0,0.3,0,0.6,0h1.7c1.3,0,2.2,0,2.8,0c0.1,0.3,0.7,2,1.9,5.2c0.5,1.3,1.9,5.2,4.2,11.6c0.4-1.4,0.8-2.8,1.3-4.2l3.5-10.9
				c0.2-0.6,0.4-1.1,0.5-1.5l5,0c0.7,0,1.1,0,1.3,0.1c0.1,0.1,0.2,0.2,0.2,0.3c0,0.2-0.2,0.3-0.6,0.3c-0.6,0-1,0-1.3,0.1
				c-0.5,0.1-0.9,0.3-1.1,0.5c-0.1,0.2-0.2,1.4-0.2,3.9v15.4c0,0.9,0.1,1.4,0.3,1.6c0.3,0.2,1,0.3,2.1,0.3h0.2
				C138.7,31.3,139,31.4,139,31.6z"/>
		</g>
		<g>
			<path d="M153.4,30.3c0,0.4-0.4,0.8-1.2,1.2c-0.8,0.4-1.5,0.6-2.2,0.6c-1.5,0-2.3-0.8-2.4-2.3c-0.8,1.6-2.1,2.4-3.9,2.4
				c-0.9,0-1.7-0.3-2.3-0.8c-0.6-0.6-0.9-1.3-0.9-2.2c0-1.8,1.1-3.2,3.2-4.3c0.7-0.4,2-0.7,3.9-1.1V23c0-1.9-0.1-3.2-0.3-3.8
				c-0.4-1.1-1.1-1.7-2.4-1.7c-0.8,0-1.4,0.2-1.9,0.6c-0.5,0.4-0.8,0.9-0.8,1.6c0,0.2,0.1,0.3,0.4,0.3c0.3,0,0.5,0.1,0.7,0.4
				s0.3,0.6,0.3,0.9c0,1-0.5,1.5-1.5,1.5c-0.5,0-0.9-0.2-1.3-0.5s-0.5-0.8-0.5-1.3c0-1,0.4-1.9,1.2-2.7c0.9-0.8,2.2-1.2,3.8-1.2
				c2.4,0,3.9,0.7,4.5,2c0.2,0.5,0.3,1.5,0.3,3v6.2c0,1,0,1.6,0,1.8c0.1,0.8,0.4,1.2,1,1.2c0.6,0,1.1-0.2,1.5-0.7
				c0.2-0.2,0.4-0.4,0.5-0.4C153.3,30.1,153.4,30.2,153.4,30.3z M147.6,26.8v-2.4c-1.6,0.4-2.8,0.9-3.5,1.5
				c-0.7,0.6-1.1,1.4-1.1,2.4c0,0.7,0.2,1.3,0.6,1.7c0.4,0.5,0.9,0.7,1.5,0.7c0.9,0,1.7-0.5,2.2-1.6
				C147.5,28.9,147.6,28.1,147.6,26.8z"/>
		</g>
		<g>
			<path d="M163.5,19.3c0,0.5-0.2,0.9-0.5,1.3c-0.3,0.3-0.7,0.5-1.2,0.5c-0.4,0-0.7-0.1-1-0.3c-0.3-0.2-0.4-0.5-0.4-0.9
				c0-0.3,0.1-0.6,0.3-0.8c0.2-0.2,0.3-0.4,0.3-0.5c0-0.3-0.2-0.5-0.7-0.5c-0.6,0-1.1,0.4-1.6,1.1c-0.5,0.9-0.8,2.6-0.8,5v6.5
				c0,0.3,0.1,0.4,0.3,0.5s0.8,0.1,1.7,0.1c0.2,0,0.4,0.1,0.4,0.3c0,0.2-0.1,0.2-0.4,0.2c-0.5,0-1,0-1.4,0c-0.4,0-1.3,0-2.5,0
				c-0.6,0-1.1,0-1.4,0c-0.3,0-0.6,0-1.1,0c-0.4,0-0.5-0.1-0.5-0.2c0-0.1,0.1-0.2,0.4-0.2h0.5c0.7,0,1.2-0.1,1.3-0.3
				c0-0.1,0.1-0.5,0.1-1.2v-9.1c0-1.2-0.2-1.9-0.5-2.1s-0.9-0.3-1.7-0.3c-0.3,0-0.4-0.1-0.4-0.2c0-0.2,0.1-0.2,0.3-0.2h0.2
				c0.3,0,0.7,0,1,0c0.3,0,0.5,0,0.4,0c0.8,0,1.7-0.2,2.7-0.7l0.4-0.2l0.3-0.1c0.1,0.5,0.1,1.1,0.1,1.6v0.7c0.7-1.5,1.7-2.2,3-2.2
				c0.7,0,1.3,0.2,1.8,0.6C163.2,18.2,163.5,18.7,163.5,19.3z"/>
		</g>
		<g>
			<path d="M180.3,31.6c0,0.2-0.4,0.2-1.2,0.2c-0.6,0-1.2,0-1.8,0c-1.1,0-1.9-0.1-2.3-0.1c-0.3,0-0.7,0-1.3,0c-0.6,0-1,0-1.3,0
				c-0.2,0-0.3-0.1-0.3-0.2c0-0.2,0.2-0.3,0.6-0.3c1.1,0,1.6-0.2,1.6-0.5c0-0.3-1.8-2.5-5.5-6.6v6.7c0,0.3,0.3,0.5,0.9,0.5h0.9
				c0.3,0,0.4,0.1,0.4,0.2c0,0.2-0.2,0.3-0.7,0.3c0,0,0,0-0.2,0c-0.2,0-0.4,0-0.8,0c-0.5,0-1.2,0-2.1,0h-2.6c-0.5,0-0.8-0.1-0.8-0.3
				c0-0.1,0-0.2,0.1-0.2c0.1,0,0.5,0,1.1-0.1c0.5,0,0.8-0.1,0.8-0.4c0-0.2,0.1-0.7,0.1-1.7V13.1c0-1.7,0-2.6,0-2.7
				c0-0.2-0.4-0.2-1-0.2h-0.3c-0.2,0-0.3,0-0.5,0c-0.2,0-0.4-0.1-0.4-0.2s0.3-0.2,0.8-0.2c1.1,0,2.2-0.3,3.3-1
				c0.3-0.2,0.4-0.2,0.5-0.2c0.2,0,0.4,0.9,0.4,2.7v12.2c3.6-3.2,5.3-4.9,5.3-5.3c0-0.1-0.4-0.2-1.3-0.2c0,0-0.1,0-0.2,0
				c-0.1,0-0.3,0-0.5,0h-0.3c-0.4,0-0.6-0.1-0.6-0.3c0-0.2,0.3-0.3,1-0.3h1.4h1.2h2c0.8,0,1.3,0,1.4,0c0.1,0,0.2,0.1,0.2,0.2
				c0,0.2-0.5,0.2-1.6,0.3c-0.7,0-1.2,0.1-1.4,0.2c-0.3,0.2-0.5,0.4-0.8,0.6l-4.1,4c3.1,3.4,5.2,5.8,6.5,7.4c0.5,0.6,0.9,1,1.3,1.2
				c0.2,0.1,0.8,0.2,1.6,0.1C180.2,31.3,180.3,31.4,180.3,31.6z"/>
		</g>
		<g>
			<path d="M192.3,28.2c0,0.2-0.2,0.6-0.5,1.2c-0.3,0.6-0.7,1-1,1.4c-0.9,1-2.2,1.5-3.8,1.5c-2,0-3.6-0.7-5-2.1
				c-1.3-1.4-2-3.2-2-5.3c0-2.2,0.6-4,1.9-5.5c1.3-1.5,2.8-2.2,4.7-2.2c1.6,0,2.9,0.5,3.9,1.4c1.1,0.9,1.6,2.1,1.7,3.5
				c-0.7,0.1-1.6,0.2-2.8,0.1h-2.3c-0.2,0-1.5,0-4,0.1c-0.1,0.7-0.2,1.4-0.2,2.1c0,2.2,0.4,3.9,1.3,5.1c0.8,1.2,2,1.8,3.6,1.8
				c0.9,0,1.6-0.2,2.1-0.6c0.5-0.4,1.1-1.2,1.7-2.3c0.1-0.2,0.2-0.3,0.4-0.3C192.2,28,192.3,28.1,192.3,28.2z M189.4,21.5
				c-0.1-2.6-1-4-2.8-4c-1.8,0-2.9,1.3-3.3,4H189.4z"/>
		</g>
		<g>
			<path d="M203.2,29.9c0,0.2-0.3,0.6-0.8,1.1c-0.9,0.9-2.1,1.3-3.4,1.3c-1.2,0-2.1-0.3-2.7-0.9c-0.4-0.4-0.5-1.4-0.5-3.1v-9.8
				c0-0.2-0.1-0.3-0.4-0.4h-1.3c-0.5,0-0.7-0.1-0.7-0.2c0-0.2,0.1-0.2,0.4-0.3c1.7-0.2,3-1,4-2.5c0.1-0.2,0.3-0.3,0.5-0.3
				c0.2,0,0.2,0.1,0.2,0.2v0.1c0,0.1,0,0.3,0,0.6c0,0.9,0,1.5,0.1,1.8c0.2,0,0.5,0.1,1,0.1c1.2,0,2-0.1,2.4-0.2c0.1,0,0.2,0,0.2,0
				c0.2,0,0.3,0.1,0.3,0.3c0,0.3-0.9,0.5-2.7,0.5c-0.3,0-0.8,0-1.4,0v6.1c0,3.1,0.1,5,0.2,5.8c0.2,0.8,0.7,1.2,1.5,1.2
				c0.7,0,1.5-0.4,2.4-1.2c0.1-0.1,0.2-0.2,0.3-0.2C203.1,29.7,203.2,29.8,203.2,29.9z"/>
		</g>
	</g>
	<g>
		<path d="M10.4,23c0.1-0.1,0.1-0.3,0.2-0.4c0.4-1,0.7-2,1.1-2.9c0.7-1.7,1.6-3.4,2.3-5.1c0.5-1,0.5-2.1,0.3-3.2
			C14,10,13.1,8.9,12.1,7.8c-1.2-1.2-2.7-2-4-2.9C6.5,3.9,5,2.8,3.8,1.3C3.5,0.9,3.2,0.5,2.8,0C2.7,0.2,2.6,0.3,2.6,0.4
			C2.2,1.6,1.7,2.7,1.4,3.9C0.9,5.8,0.4,7.7,0.2,9.6c-0.3,2.3-0.3,4.7,0.1,7C0.6,18.4,1.2,20,2,21.6c1.5,3,3.4,5.6,5.8,7.9
			c0.8,0.8,1.7,1.6,2.6,2.3c0,0,0.1-0.1,0.1-0.1c0-0.1,0-0.2-0.1-0.4c-1-2.2-2.1-4.3-3.1-6.5c-0.9-2-1.8-4-2.3-6.1
			c-0.4-1.5-0.4-3-0.3-4.7c1,2.6,2.1,5,3.7,7.1C9,21.9,9.5,22.6,10.4,23z"/>
	</g>
	<g>
		<path d="M21.9,21.2c1.6-2.1,2.8-4.5,3.7-7.1c0,1.7,0,3.2-0.3,4.7c-0.5,2.1-1.3,4.1-2.3,6.1c-1,2.2-2.1,4.3-3.1,6.5
			c-0.1,0.1-0.1,0.2-0.1,0.4c0,0,0.1,0.1,0.1,0.1c0.9-0.8,1.8-1.5,2.6-2.3c2.4-2.3,4.3-5,5.8-7.9c0.8-1.6,1.4-3.2,1.7-4.9
			c0.4-2.3,0.4-4.7,0.1-7c-0.2-1.9-0.7-3.8-1.2-5.7c-0.3-1.2-0.8-2.3-1.2-3.5c0-0.1-0.2-0.2-0.3-0.4c-0.3,0.5-0.6,0.9-0.9,1.3
			c-1.2,1.5-2.7,2.6-4.3,3.6c-1.4,0.9-2.9,1.7-4,2.9c-1,1.1-1.9,2.2-2.2,3.7c-0.2,1.1-0.1,2.2,0.3,3.2c0.8,1.7,1.6,3.4,2.3,5.1
			c0.4,0.9,0.7,1.9,1.1,2.9c0,0.1,0.1,0.2,0.2,0.4C20.8,22.6,21.4,21.9,21.9,21.2z"/>
	</g>
</g>
</svg>
