<?xml version="1.0" encoding="utf-8"?>
<!-- Generator: Adobe Illustrator 24.0.3, SVG Export Plug-In . SVG Version: 6.00 Build 0)  -->
<svg version="1.1" id="Layer_1" xmlns="http://www.w3.org/2000/svg" xmlns:xlink="http://www.w3.org/1999/xlink" x="0px" y="0px"
	 viewBox="0 0 193.5 45.5" style="enable-background:new 0 0 193.5 45.5;" xml:space="preserve">
<g>
	<g>
		<g>
			<path d="M57,14.8v2.9h0.1c0.4-1,1.1-1.9,2.1-2.5c1-0.6,2.1-0.9,3.3-0.9c1.2,0,2.2,0.2,3,0.5c0.8,0.3,1.4,0.7,1.9,1.3
				c0.5,0.6,0.8,1.2,1,2.1c0.2,0.8,0.3,1.7,0.3,2.7v11h-2.1V21.2c0-0.7-0.1-1.4-0.2-2c-0.1-0.6-0.4-1.2-0.7-1.6
				c-0.3-0.5-0.8-0.8-1.3-1.1c-0.6-0.3-1.3-0.4-2.1-0.4c-0.8,0-1.6,0.1-2.2,0.4c-0.6,0.3-1.2,0.7-1.7,1.2c-0.5,0.5-0.8,1.1-1.1,1.8
				c-0.3,0.7-0.4,1.5-0.4,2.3v9.9h-2.1v-17H57z"/>
		</g>
		<g>
			<path d="M74.2,26.2c0.2,0.8,0.5,1.5,1,2.2c0.5,0.6,1,1.2,1.8,1.6c0.7,0.4,1.6,0.6,2.5,0.6c1.5,0,2.7-0.4,3.6-1.2s1.5-1.8,1.8-3.2
				H87c-0.4,1.9-1.2,3.4-2.4,4.5c-1.2,1.1-2.8,1.6-5,1.6c-1.3,0-2.5-0.2-3.5-0.7c-1-0.5-1.8-1.1-2.4-1.9c-0.6-0.8-1.1-1.8-1.4-2.9
				c-0.3-1.1-0.4-2.2-0.4-3.5c0-1.1,0.1-2.2,0.4-3.3c0.3-1.1,0.8-2,1.4-2.9c0.6-0.8,1.4-1.5,2.4-2c1-0.5,2.1-0.8,3.5-0.8
				c1.4,0,2.5,0.3,3.5,0.8c1,0.6,1.8,1.3,2.4,2.2c0.6,0.9,1,1.9,1.3,3.1s0.4,2.3,0.3,3.5H73.9C73.9,24.6,74,25.4,74.2,26.2z
				 M84.5,19.9c-0.3-0.7-0.6-1.4-1.1-1.9c-0.5-0.6-1-1-1.7-1.4c-0.7-0.3-1.4-0.5-2.2-0.5c-0.9,0-1.6,0.2-2.3,0.5
				c-0.7,0.3-1.2,0.8-1.7,1.4c-0.5,0.6-0.8,1.2-1.1,1.9c-0.3,0.7-0.5,1.5-0.5,2.3h11C84.9,21.3,84.8,20.6,84.5,19.9z"/>
		</g>
		<g>
			<path d="M96.6,14.8v1.8h-3.5v11.5c0,0.7,0.1,1.2,0.3,1.6c0.2,0.4,0.7,0.6,1.4,0.6c0.6,0,1.2,0,1.8-0.1v1.8c-0.3,0-0.6,0-0.9,0
				c-0.3,0-0.6,0-0.9,0c-1.4,0-2.4-0.3-2.9-0.8c-0.6-0.5-0.8-1.5-0.8-3V16.6h-3v-1.8h3V9.7h2.1v5.1H96.6z"/>
		</g>
		<g>
			<path d="M101.5,14.8V18h0.1c0.5-1.2,1.3-2.1,2.4-2.8c1.1-0.6,2.3-1,3.7-1c1.3,0,2.4,0.2,3.4,0.7c1,0.5,1.8,1.1,2.4,2
				c0.6,0.8,1.1,1.8,1.4,2.9c0.3,1.1,0.5,2.2,0.5,3.5c0,1.2-0.2,2.4-0.5,3.5c-0.3,1.1-0.8,2-1.4,2.9c-0.6,0.8-1.4,1.5-2.4,1.9
				s-2.1,0.7-3.4,0.7c-0.6,0-1.2-0.1-1.8-0.2c-0.6-0.2-1.2-0.4-1.7-0.7c-0.5-0.3-1-0.7-1.4-1.2c-0.4-0.5-0.7-1-0.9-1.6h-0.1v9.5
				h-2.1V14.8H101.5z M112.9,20.7c-0.2-0.9-0.5-1.6-1-2.3c-0.5-0.7-1-1.2-1.7-1.7c-0.7-0.4-1.6-0.6-2.5-0.6c-1.1,0-2.1,0.2-2.9,0.6
				s-1.4,0.9-1.8,1.6c-0.5,0.7-0.8,1.4-1,2.3c-0.2,0.9-0.3,1.8-0.3,2.8c0,0.9,0.1,1.8,0.3,2.6c0.2,0.9,0.5,1.6,1,2.3
				c0.5,0.7,1.1,1.2,1.8,1.7c0.8,0.4,1.7,0.6,2.8,0.6c1,0,1.8-0.2,2.5-0.6c0.7-0.4,1.3-1,1.7-1.7c0.5-0.7,0.8-1.5,1-2.3
				c0.2-0.9,0.3-1.7,0.3-2.6C113.2,22.4,113.1,21.6,112.9,20.7z"/>
		</g>
		<g>
			<path d="M120.1,26.2c0.2,0.8,0.5,1.5,1,2.2c0.5,0.6,1,1.2,1.8,1.6c0.7,0.4,1.6,0.6,2.5,0.6c1.5,0,2.7-0.4,3.6-1.2
				s1.5-1.8,1.8-3.2h2.1c-0.4,1.9-1.2,3.4-2.4,4.5c-1.2,1.1-2.8,1.6-5,1.6c-1.3,0-2.5-0.2-3.5-0.7c-1-0.5-1.8-1.1-2.4-1.9
				c-0.6-0.8-1.1-1.8-1.4-2.9c-0.3-1.1-0.4-2.2-0.4-3.5c0-1.1,0.1-2.2,0.4-3.3c0.3-1.1,0.8-2,1.4-2.9c0.6-0.8,1.4-1.5,2.4-2
				c1-0.5,2.1-0.8,3.5-0.8c1.4,0,2.5,0.3,3.5,0.8c1,0.6,1.8,1.3,2.4,2.2c0.6,0.9,1,1.9,1.3,3.1s0.4,2.3,0.3,3.5h-13.1
				C119.8,24.6,119.9,25.4,120.1,26.2z M130.4,19.9c-0.3-0.7-0.6-1.4-1.1-1.9c-0.5-0.6-1-1-1.7-1.4c-0.7-0.3-1.4-0.5-2.2-0.5
				c-0.9,0-1.6,0.2-2.3,0.5c-0.7,0.3-1.2,0.8-1.7,1.4c-0.5,0.6-0.8,1.2-1.1,1.9c-0.3,0.7-0.5,1.5-0.5,2.3h11
				C130.8,21.3,130.6,20.6,130.4,19.9z"/>
		</g>
		<g>
			<path d="M146.3,15c1,0.5,1.8,1.1,2.5,1.9c0.7,0.8,1.2,1.8,1.6,2.9c0.4,1.1,0.5,2.3,0.5,3.5c0,1.2-0.2,2.4-0.5,3.5
				c-0.4,1.1-0.9,2-1.6,2.9c-0.7,0.8-1.5,1.5-2.5,1.9c-1,0.5-2.2,0.7-3.5,0.7s-2.4-0.2-3.5-0.7c-1-0.5-1.8-1.1-2.5-1.9
				c-0.7-0.8-1.2-1.8-1.6-2.9c-0.4-1.1-0.5-2.3-0.5-3.5c0-1.2,0.2-2.4,0.5-3.5c0.4-1.1,0.9-2,1.6-2.9c0.7-0.8,1.5-1.5,2.5-1.9
				c1-0.5,2.2-0.7,3.5-0.7S145.3,14.6,146.3,15z M140.3,16.7c-0.7,0.4-1.4,1-1.9,1.7s-0.9,1.5-1.1,2.3c-0.3,0.9-0.4,1.8-0.4,2.7
				c0,0.9,0.1,1.8,0.4,2.7c0.3,0.9,0.6,1.6,1.1,2.3c0.5,0.7,1.1,1.2,1.9,1.7c0.7,0.4,1.6,0.6,2.6,0.6c1,0,1.9-0.2,2.6-0.6
				c0.7-0.4,1.4-1,1.9-1.7c0.5-0.7,0.9-1.5,1.1-2.3c0.3-0.9,0.4-1.8,0.4-2.7c0-0.9-0.1-1.8-0.4-2.7c-0.3-0.9-0.6-1.6-1.1-2.3
				c-0.5-0.7-1.1-1.2-1.9-1.7c-0.7-0.4-1.6-0.6-2.6-0.6C141.9,16.1,141,16.3,140.3,16.7z"/>
		</g>
		<g>
			<path d="M156,14.8V18h0.1c0.5-1.2,1.3-2.1,2.4-2.8c1.1-0.6,2.3-1,3.7-1c1.3,0,2.4,0.2,3.4,0.7c1,0.5,1.8,1.1,2.4,2
				c0.6,0.8,1.1,1.8,1.4,2.9c0.3,1.1,0.5,2.2,0.5,3.5c0,1.2-0.2,2.4-0.5,3.5c-0.3,1.1-0.8,2-1.4,2.9c-0.6,0.8-1.4,1.5-2.4,1.9
				s-2.1,0.7-3.4,0.7c-0.6,0-1.2-0.1-1.8-0.2c-0.6-0.2-1.2-0.4-1.7-0.7c-0.5-0.3-1-0.7-1.4-1.2c-0.4-0.5-0.7-1-0.9-1.6h-0.1v9.5
				h-2.1V14.8H156z M167.4,20.7c-0.2-0.9-0.5-1.6-1-2.3c-0.5-0.7-1-1.2-1.7-1.7c-0.7-0.4-1.6-0.6-2.5-0.6c-1.1,0-2.1,0.2-2.9,0.6
				s-1.4,0.9-1.8,1.6c-0.5,0.7-0.8,1.4-1,2.3c-0.2,0.9-0.3,1.8-0.3,2.8c0,0.9,0.1,1.8,0.3,2.6c0.2,0.9,0.5,1.6,1,2.3
				c0.5,0.7,1.1,1.2,1.8,1.7c0.8,0.4,1.7,0.6,2.8,0.6c1,0,1.8-0.2,2.5-0.6c0.7-0.4,1.3-1,1.7-1.7c0.5-0.7,0.8-1.5,1-2.3
				c0.2-0.9,0.3-1.7,0.3-2.6C167.7,22.4,167.6,21.6,167.4,20.7z"/>
		</g>
		<g>
			<path d="M175.1,8.3v23.6H173V8.3H175.1z"/>
		</g>
		<g>
			<path d="M180.6,26.2c0.2,0.8,0.5,1.5,1,2.2c0.5,0.6,1,1.2,1.8,1.6c0.7,0.4,1.6,0.6,2.5,0.6c1.5,0,2.7-0.4,3.6-1.2
				s1.5-1.8,1.8-3.2h2.1c-0.4,1.9-1.2,3.4-2.4,4.5c-1.2,1.1-2.8,1.6-5,1.6c-1.3,0-2.5-0.2-3.5-0.7c-1-0.5-1.8-1.1-2.4-1.9
				c-0.6-0.8-1.1-1.8-1.4-2.9c-0.3-1.1-0.4-2.2-0.4-3.5c0-1.1,0.1-2.2,0.4-3.3c0.3-1.1,0.8-2,1.4-2.9c0.6-0.8,1.4-1.5,2.4-2
				c1-0.5,2.1-0.8,3.5-0.8c1.4,0,2.5,0.3,3.5,0.8c1,0.6,1.8,1.3,2.4,2.2c0.6,0.9,1,1.9,1.3,3.1s0.4,2.3,0.3,3.5h-13.1
				C180.3,24.6,180.4,25.4,180.6,26.2z M190.9,19.9c-0.3-0.7-0.6-1.4-1.1-1.9c-0.5-0.6-1-1-1.7-1.4c-0.7-0.3-1.4-0.5-2.2-0.5
				c-0.9,0-1.6,0.2-2.3,0.5c-0.7,0.3-1.2,0.8-1.7,1.4c-0.5,0.6-0.8,1.2-1.1,1.9c-0.3,0.7-0.5,1.5-0.5,2.3h11
				C191.3,21.3,191.2,20.6,190.9,19.9z"/>
		</g>
	</g>
	<g>
		<path d="M4.9,34.5c1.2-0.7,2.3-1.4,3.7-2.1c-1.9-0.8-3.1-2.1-2.8-4.2c0.1-1,0.5-2,1.1-2.8c1.2-1.4,4-1.4,5.4-0.2
			c1.2,1.1,1.7,2.7,1.1,4.1c-0.5,1.2-1.6,2.2-2.4,3.1c1.1,0.7,2.5,1.6,4,2.5c1.4-1.9,3.3-3.6,6.1-4c0-0.1,0.1-0.2,0.1-0.3
			c-0.4-0.3-0.7-0.7-1.1-0.9c-2.6-1-3.9-4.3-2.9-7.2c0.9-2.7,3.8-4.5,6.7-4c2.8,0.5,5,3,5,5.9c0,2.3-1.1,4-3,5.2
			c-0.5,0.3-0.9,0.6-1.5,1c1.3,0.6,2.5,1.1,3.6,1.8c1.1,0.7,1.9,1.7,2.8,2.5c1.3-0.9,2.7-1.8,4.1-2.8c-3-1.9-4.1-4.4-1-7.3
			c1.6-1.5,4.4-0.9,5.5,0.7c1.6,2.2,0.9,4.3-2.2,6.7c1.1,0.6,2.3,1.2,3.5,1.8C31.7,43.6,14.8,44.2,4.9,34.5z"/>
	</g>
	<g>
		<path d="M22.7,45.5C10.2,45.5,0,35.3,0,22.7C0,10.2,10.2,0,22.7,0c12.5,0,22.7,10.2,22.7,22.7C45.5,35.3,35.3,45.5,22.7,45.5z
			 M22.7,4C12.4,4,4,12.4,4,22.7c0,10.3,8.4,18.7,18.7,18.7c10.3,0,18.7-8.4,18.7-18.7C41.5,12.4,33.1,4,22.7,4z"/>
	</g>
</g>
</svg>
