<?xml version="1.0" encoding="utf-8"?>
<!-- Generator: Adobe Illustrator 24.0.3, SVG Export Plug-In . SVG Version: 6.00 Build 0)  -->
<svg version="1.1" id="Layer_1" xmlns="http://www.w3.org/2000/svg" xmlns:xlink="http://www.w3.org/1999/xlink" x="0px" y="0px"
	 viewBox="0 0 158.8 33.7" style="enable-background:new 0 0 158.8 33.7;" xml:space="preserve">
<g>
	<g>
		<g>
			<path d="M29.7,28.8V5.8H34V8c0.8-0.7,1.6-1.3,2.6-1.8c0.9-0.5,2-0.8,3.1-0.8c0.9,0,1.6,0.2,2.1,0.7c0.5,0.5,0.8,1.1,1,1.8
				c0.2,0.7,0.3,1.5,0.3,2.2v18.7h-4.3V11.4c0-0.8-0.1-1.5-0.4-1.9C38.2,9,37.7,8.8,37,8.8c-0.5,0-1,0.1-1.5,0.4
				c-0.5,0.3-1,0.6-1.5,1v18.6H29.7z"/>
		</g>
		<g>
			<path d="M53.5,29.1c-1.7,0-3-0.3-4-1c-1-0.7-1.7-1.7-2.1-3c-0.4-1.3-0.6-2.8-0.6-4.5v-6.7c0-1.7,0.2-3.2,0.6-4.5
				c0.4-1.3,1.1-2.3,2.1-3c1-0.7,2.3-1,4-1c1.7,0,3,0.3,4,1c1,0.7,1.7,1.7,2.1,3c0.4,1.3,0.6,2.8,0.6,4.5v6.7c0,1.7-0.2,3.2-0.6,4.5
				c-0.4,1.3-1.1,2.3-2.1,3C56.6,28.8,55.3,29.1,53.5,29.1z M53.5,26c0.8,0,1.4-0.2,1.7-0.7c0.3-0.5,0.5-1.1,0.6-1.9
				c0.1-0.8,0.1-1.6,0.1-2.5v-7.2c0-0.9,0-1.7-0.1-2.5c-0.1-0.8-0.3-1.4-0.6-1.9c-0.3-0.5-0.9-0.7-1.7-0.7c-0.8,0-1.4,0.2-1.8,0.7
				c-0.3,0.5-0.6,1.1-0.6,1.9c-0.1,0.8-0.1,1.6-0.1,2.5v7.2c0,0.9,0,1.7,0.1,2.5c0.1,0.8,0.3,1.4,0.6,1.9C52.1,25.7,52.7,26,53.5,26
				z"/>
		</g>
		<g>
			<path d="M64.2,28.8V5.8h4.3V8c0.8-0.7,1.6-1.3,2.6-1.8c0.9-0.5,2-0.8,3.1-0.8c0.9,0,1.6,0.2,2.1,0.7c0.5,0.5,0.8,1.1,1,1.8
				c0.2,0.7,0.3,1.5,0.3,2.2v18.7h-4.3V11.4c0-0.8-0.1-1.5-0.4-1.9c-0.2-0.5-0.7-0.7-1.5-0.7c-0.5,0-1,0.1-1.5,0.4
				c-0.5,0.3-1,0.6-1.5,1v18.6H64.2z"/>
		</g>
		<g>
			<path d="M87,29.1c-1.9,0-3.4-0.6-4.5-1.8c-1.1-1.2-1.8-2.7-2-4.7l3.6-1.1c0.2,1.5,0.6,2.6,1.1,3.3c0.5,0.7,1.2,1.1,2.2,1.1
				c0.8,0,1.4-0.2,1.8-0.7s0.6-1,0.6-1.8c0-0.7-0.1-1.3-0.4-1.8c-0.3-0.5-0.8-1.1-1.4-1.6l-3.9-3.4c-0.8-0.7-1.5-1.5-2-2.3
				c-0.5-0.9-0.8-2-0.8-3.3c0-1.2,0.2-2.3,0.7-3.1c0.5-0.8,1.2-1.5,2.1-1.9c0.9-0.4,1.9-0.7,3.1-0.7c1.8,0,3.2,0.6,4.2,1.8
				c1,1.2,1.5,2.6,1.7,4.3L90,12.6c-0.1-0.8-0.3-1.5-0.5-2.1c-0.2-0.6-0.5-1.1-0.9-1.4c-0.4-0.3-0.9-0.5-1.5-0.5
				c-0.7,0-1.2,0.2-1.7,0.7c-0.4,0.5-0.6,1-0.6,1.7c0,0.4,0.1,0.8,0.3,1.2c0.2,0.4,0.5,0.8,0.9,1.1l4.1,3.8c0.6,0.5,1.1,1.1,1.6,1.6
				c0.5,0.6,0.9,1.3,1.2,2c0.3,0.7,0.5,1.6,0.5,2.6c0,1.3-0.3,2.4-0.8,3.3c-0.5,0.9-1.3,1.5-2.2,2C89.4,28.9,88.3,29.1,87,29.1z"/>
		</g>
		<g>
			<path d="M103,29.1c-1.8,0-3.2-0.4-4.2-1.1c-1-0.7-1.7-1.7-2.1-3.1c-0.4-1.4-0.6-3.1-0.6-5v-5.3c0-2,0.2-3.8,0.6-5.1
				c0.4-1.4,1.1-2.4,2.1-3.1c1-0.7,2.4-1,4.1-1c1.9,0,3.4,0.4,4.3,1.2s1.5,1.9,1.8,3.5c0.3,1.5,0.4,3.3,0.4,5.4v1.9h-9.1V22
				c0,0.9,0.1,1.7,0.3,2.3c0.2,0.6,0.5,1,0.8,1.3c0.4,0.3,0.9,0.4,1.5,0.4c0.6,0,1.1-0.2,1.5-0.5c0.3-0.3,0.6-0.7,0.7-1.3
				c0.1-0.6,0.2-1.2,0.2-2v-1.4h4.1v0.9c0,2.3-0.5,4.1-1.5,5.5C107,28.5,105.3,29.1,103,29.1z M100.4,15.1h4.9V13
				c0-1-0.1-1.8-0.2-2.4c-0.1-0.7-0.3-1.1-0.7-1.5c-0.3-0.3-0.9-0.5-1.6-0.5c-0.7,0-1.2,0.2-1.6,0.5c-0.4,0.3-0.6,0.9-0.7,1.6
				c-0.1,0.8-0.2,1.8-0.2,3.1V15.1z"/>
		</g>
		<g>
			<path d="M113.4,28.8V5.8h4.3V8c0.8-0.7,1.6-1.3,2.6-1.8c0.9-0.5,2-0.8,3.1-0.8c0.9,0,1.6,0.2,2.1,0.7c0.5,0.5,0.8,1.1,1,1.8
				c0.2,0.7,0.3,1.5,0.3,2.2v18.7h-4.3V11.4c0-0.8-0.1-1.5-0.4-1.9c-0.2-0.5-0.7-0.7-1.5-0.7c-0.5,0-1,0.1-1.5,0.4
				c-0.5,0.3-1,0.6-1.5,1v18.6H113.4z"/>
		</g>
		<g>
			<path d="M136.3,29.1c-1.9,0-3.4-0.6-4.5-1.8c-1.1-1.2-1.8-2.7-2-4.7l3.6-1.1c0.2,1.5,0.6,2.6,1.1,3.3c0.5,0.7,1.2,1.1,2.2,1.1
				c0.8,0,1.4-0.2,1.8-0.7s0.6-1,0.6-1.8c0-0.7-0.1-1.3-0.4-1.8c-0.3-0.5-0.8-1.1-1.4-1.6l-3.9-3.4c-0.8-0.7-1.5-1.5-2-2.3
				c-0.5-0.9-0.8-2-0.8-3.3c0-1.2,0.2-2.3,0.7-3.1c0.5-0.8,1.2-1.5,2.1-1.9c0.9-0.4,1.9-0.7,3.1-0.7c1.8,0,3.2,0.6,4.2,1.8
				c1,1.2,1.5,2.6,1.7,4.3l-2.9,1.1c-0.1-0.8-0.3-1.5-0.5-2.1c-0.2-0.6-0.5-1.1-0.9-1.4c-0.4-0.3-0.9-0.5-1.5-0.5
				c-0.7,0-1.2,0.2-1.7,0.7c-0.4,0.5-0.6,1-0.6,1.7c0,0.4,0.1,0.8,0.3,1.2c0.2,0.4,0.5,0.8,0.9,1.1l4.1,3.8c0.6,0.5,1.1,1.1,1.6,1.6
				c0.5,0.6,0.9,1.3,1.2,2c0.3,0.7,0.5,1.6,0.5,2.6c0,1.3-0.3,2.4-0.8,3.3c-0.5,0.9-1.3,1.5-2.2,2C138.6,28.9,137.5,29.1,136.3,29.1
				z"/>
		</g>
		<g>
			<path d="M152.2,29.1c-1.8,0-3.2-0.4-4.2-1.1c-1-0.7-1.7-1.7-2.1-3.1c-0.4-1.4-0.6-3.1-0.6-5v-5.3c0-2,0.2-3.8,0.6-5.1
				c0.4-1.4,1.1-2.4,2.1-3.1c1-0.7,2.4-1,4.1-1c1.9,0,3.4,0.4,4.3,1.2s1.5,1.9,1.8,3.5c0.3,1.5,0.4,3.3,0.4,5.4v1.9h-9.1V22
				c0,0.9,0.1,1.7,0.3,2.3c0.2,0.6,0.5,1,0.8,1.3c0.4,0.3,0.9,0.4,1.5,0.4c0.6,0,1.1-0.2,1.5-0.5c0.3-0.3,0.6-0.7,0.7-1.3
				c0.1-0.6,0.2-1.2,0.2-2v-1.4h4.1v0.9c0,2.3-0.5,4.1-1.5,5.5C156.3,28.5,154.6,29.1,152.2,29.1z M149.7,15.1h4.9V13
				c0-1-0.1-1.8-0.2-2.4c-0.1-0.7-0.3-1.1-0.7-1.5c-0.3-0.3-0.9-0.5-1.6-0.5c-0.7,0-1.2,0.2-1.6,0.5c-0.4,0.3-0.6,0.9-0.7,1.6
				c-0.1,0.8-0.2,1.8-0.2,3.1V15.1z"/>
		</g>
	</g>
	<g>
		<path d="M18.4,18.6H1.1V0h17.3V18.6z M4.1,15.6h11.3V3H4.1V15.6z"/>
	</g>
	<g>
		<path d="M19.9,33.7H0l10-17.3L19.9,33.7z M5.2,30.7h9.5L10,22.4L5.2,30.7z"/>
	</g>
</g>
</svg>
