<svg xmlns="http://www.w3.org/2000/svg" viewBox="0 0 142.69 204.95"><title>Asset 4</title><path d="M99.82,106.07C93.2,101.25,92.61,94.89,98,88.68c3.62-4.17,8-7.39,12.34-10.72,6.89-5.33,12.26-11.84,14.86-20.27,5-16.21-.27-32.48-14-44-1.31-1.1-3.15-1.8-3.87-3.89,3.69,0,7,.11,10.34,0,2.76-.11,5.63.73,8.25-.68,5.61-3,11.2-6.09,16.79-9.13H77.89a1.83,1.83,0,0,1-2.4,0h-3.2c-2.33,1.38-5,1.3-7.52,1.59C51.13,3.17,39,8.18,29.14,17.83,17,29.73,11.46,44.1,15.93,61c4.83,18.3,18.2,27.29,35.85,31.06,6.35,1.36,12.8.61,19.56.75h0s0,0,0,0c-4.94,10.39-2.16,19.12,5.11,27.59l.65.75-.91,0a199.78,199.78,0,0,0-20.68,2C42,125.11,29,128.71,17.4,136.32,3,145.77-3.64,163,2,177.07c4.29,10.74,13,17,23.23,21.2,19.11,7.75,38.93,8.06,58.9,4.46C99.24,200,112.86,194,123.6,182.6c14.82-15.76,16.81-40.11.06-57.17C116.42,118.06,108.1,112.11,99.82,106.07ZM74.66,85C61.92,84.7,54.28,76.9,48.18,67.11c-5.51-8.87-7.9-18.79-8.14-29.2-.2-11.22,3.41-20.43,14.05-25.64,9.15-4.48,18.29-4.55,26.81,1.44A43.59,43.59,0,0,1,95.25,31.53a65.66,65.66,0,0,1,6.08,29.76C100.88,77.81,86.41,85.34,74.66,85ZM97,135.85c3.61,3.29,8,5.66,11.61,9.1,14.79,14.33,10,36.67-9.29,43.89-7.89,2.95-16.06,3.53-23.27,3.86-10.26-.39-19.33-1.41-28.08-4.62a38.93,38.93,0,0,1-15.75-10.56c-11.78-13.09-7.87-32.07,8.24-40.73,9.71-5.23,20.42-6.43,31.11-8C81.24,127.44,89.64,129.1,97,135.85Z" style="fill:#fff"/></svg>