<svg xmlns="http://www.w3.org/2000/svg" viewBox="0 0 204.8 205.32"><title>Asset 2</title><path d="M102.85,56.57c-25.12,0-45.88,20.55-46,45.58-.1,25.54,20.73,46.48,46.07,46.31a46.06,46.06,0,0,0,45.79-45.76C148.77,77.48,128,56.6,102.85,56.57Zm-.16,75.19c-15.92.17-28.87-12.8-29.12-29.18a29.24,29.24,0,0,1,28.58-29.33C118.82,73,131.79,85.63,132,102.41,132.27,118.55,119.25,131.57,102.69,131.76Z" style="fill:#fff"/><path d="M162.38,51a8.21,8.21,0,1,1-8.27-8.08A8.5,8.5,0,0,1,162.38,51Z" style="fill:#fff"/><path d="M203.07,38.38C196.43,17,175-.34,150.74,0c-32.49.48-65,.21-97.48.08C38.72,0,26.46,5.42,16.19,15.25,6.78,24.24,1,35.27,0,48.52v108.8C1.06,170.19,6.65,181,15.66,189.94S35.28,204.28,48,205.32H156c12.64-.69,23.31-6,32.29-14.54,9.53-9.06,15.4-20.14,16.51-33.46v-108C204,45.72,204.19,42,203.07,38.38ZM148,188.67q-45.58.12-91.16,0c-19.34,0-33.57-10.73-39.06-29.14a38.4,38.4,0,0,1-1.19-11.09c0-30.38-.06-60.77,0-91.15C16.7,33.75,33.34,17.23,57,17.15c15.2,0,30.39,0,45.58,0s30.12,0,45.18,0c23.85.07,40.4,16.59,40.45,40.43q.08,45.38,0,90.76C188.12,172,171.58,188.61,148,188.67Z" style="fill:#fff"/><path d="M102.85,56.57c-25.12,0-45.88,20.55-46,45.58-.1,25.54,20.73,46.48,46.07,46.31a46.06,46.06,0,0,0,45.79-45.76C148.77,77.48,128,56.6,102.85,56.57Zm-.16,75.19c-15.92.17-28.87-12.8-29.12-29.18a29.24,29.24,0,0,1,28.58-29.33C118.82,73,131.79,85.63,132,102.41,132.27,118.55,119.25,131.57,102.69,131.76Z" style="fill:#fff"/><path d="M162.38,51a8.21,8.21,0,1,1-8.27-8.08A8.5,8.5,0,0,1,162.38,51Z" style="fill:#fff"/><path d="M102.85,56.57c-25.12,0-45.88,20.55-46,45.58-.1,25.54,20.73,46.48,46.07,46.31a46.06,46.06,0,0,0,45.79-45.76C148.77,77.48,128,56.6,102.85,56.57Zm-.16,75.19c-15.92.17-28.87-12.8-29.12-29.18a29.24,29.24,0,0,1,28.58-29.33C118.82,73,131.79,85.63,132,102.41,132.27,118.55,119.25,131.57,102.69,131.76Z" style="fill:#fff"/><path d="M162.38,51a8.21,8.21,0,1,1-8.27-8.08A8.5,8.5,0,0,1,162.38,51Z" style="fill:#fff"/></svg>