<svg xmlns="http://www.w3.org/2000/svg" viewBox="0 0 203.04 166.29"><title>Asset 3</title><path d="M24.18,62.47C7,48.92,2.19,26.16,13.07,7.93c2,2.2,3.92,4.37,5.91,6.44Q50.63,47.18,96,51.26c3,.26,3.38-.27,2.89-3.28C96.1,30.64,105.06,13.6,121.26,4.84a41.09,41.09,0,0,1,46.84,5.72c2.26,2,4.11,2.57,7,1.78a101.87,101.87,0,0,0,18.61-7c.81-.4,1.58-1.72,2.7-.57.91.94-.11,1.77-.42,2.5-3.17,7.35-8.28,13.16-15.63,18.35,8.46-.12,15.21-3.05,22.65-5.53a76.18,76.18,0,0,1-17.75,19,6.2,6.2,0,0,0-2.8,5.57c-.44,40.12-15.93,73.16-47.4,98.17-14.72,11.69-31.82,18.58-50.42,21.63-29.05,4.77-56.43.3-81.95-14.6-1-.57-2.29-.83-2.72-2.28,22.14,2,42.08-3.6,60.65-17.35-19.36-1.91-32.16-11.36-39-29.33,6.17.77,11.8,1.24,18.36-.76C27.8,96.82,18.81,90.41,12.77,80.29A40.4,40.4,0,0,1,7.06,58.93c5.17,1.81,10,4.25,15.47,4.42C23.24,63.36,24.45,64.3,24.18,62.47Z" style="fill:#fff"/></svg>